<?xml version="1.0" standalone="no"?>
<!DOCTYPE svg PUBLIC "-//W3C//DTD SVG 20010904//EN"
 "http://www.w3.org/TR/2001/REC-SVG-20010904/DTD/svg10.dtd">
<svg version="1.0" xmlns="http://www.w3.org/2000/svg"
 width="90.000000pt" height="90.000000pt" viewBox="0 0 90.000000 90.000000"
 preserveAspectRatio="xMidYMid meet">

<g transform="translate(0.000000,90.000000) scale(0.100000,-0.100000)"
fill="#000000" stroke="none">
<path d="M361 889 c-120 -23 -252 -121 -304 -225 -40 -79 -51 -122 -37 -139 9
-11 10 -33 5 -73 -13 -103 -10 -125 22 -195 130 -275 502 -339 719 -123 90 91
151 251 110 291 -21 21 -21 63 1 87 14 16 15 23 3 61 -67 224 -291 361 -519
316z m194 -94 c74 -22 149 -79 196 -149 l41 -61 -48 -6 c-47 -5 -47 -5 -103
52 -44 45 -68 61 -110 73 -30 9 -66 16 -81 16 -15 0 -51 -7 -81 -16 -42 -12
-66 -28 -111 -74 -57 -58 -57 -58 -104 -52 l-46 7 41 61 c45 68 121 127 192
149 58 18 154 18 214 0z m-24 -236 c15 -10 34 -37 43 -60 29 -73 -2 -144 -75
-173 -73 -29 -144 2 -173 75 -51 126 94 237 205 158z m-325 -223 c13 -41 95
-115 150 -136 66 -24 103 -25 173 -4 59 17 141 85 160 132 11 25 17 28 61 28
46 0 50 -2 44 -20 -23 -80 -106 -171 -192 -213 -50 -25 -68 -28 -152 -28 -84
0 -102 3 -152 28 -86 42 -169 133 -192 213 -6 18 -2 20 44 20 41 0 51 -3 56
-20z"/>
</g>
</svg>
